<svg xmlns="http://www.w3.org/2000/svg" width="263.785" height="40" viewBox="0 0 263.785 40">
  <g id="logo-white" transform="translate(-99.555 -248.926)">
    <path id="Path_11134" data-name="Path 11134" d="M133.151,277.851c0-.29,0-.581,0-.873,0-2.31-.031-4.63-.065-6.944a2.02,2.02,0,0,1,2-2.049l3.232-.028,1.487-.013a9.325,9.325,0,0,0,8.493-8.978c0-.1.006-.2.006-.309a9.329,9.329,0,0,0-8.216-9.261H110.877c-.56,0-1.12-.023-1.679-.043-.105,0-.212,0-.319,0a9.324,9.324,0,0,0-9.324,9.324,9.42,9.42,0,0,0,.191,1.89,9.284,9.284,0,0,0,1.427,3.362,9.347,9.347,0,0,0,8.5,4.045,18.367,18.367,0,0,0,7.161-2.4c.007,0,.131-.07.131-.073l-1.906-3.172a2.222,2.222,0,0,1,1.866-3.367l12.735-.216,1.382-.024a2.222,2.222,0,0,1,1.94,3.37l-1.372,2.275-5.772,9.568a2.222,2.222,0,0,1-3.808,0l-1.767-2.939c-2.362,1.615-4.534,3.564-5.31,6.417a9.325,9.325,0,0,0,15.317,9.309C132.9,284.284,133.134,281.146,133.151,277.851Z" transform="translate(0 -0.249)" fill="#f96555"/>
    <g id="Group_3348" data-name="Group 3348" transform="translate(156.119 248.926)">
      <path id="Path_11135" data-name="Path 11135" d="M253.764,281.568c0,5.36-2.982,8.591-8.733,8.591-6.994,0-8.307-4.651-8.307-7.172,0-2.165.994-3.55,2.769-3.55,2.094,0,2.627,1.633,2.627,3.372a2.556,2.556,0,0,0,2.84,2.876c1.917,0,2.982-1.42,2.982-4.189V266.444a2.911,2.911,0,1,1,5.822,0Z" transform="translate(-236.724 -257.509)" fill="#fff"/>
      <path id="Path_11136" data-name="Path 11136" d="M305.607,297.392c0,1.562-.71,2.591-2.343,2.591s-2.343-1.029-2.343-2.591v-.675h-.071a7.434,7.434,0,0,1-6.284,3.266c-3.124,0-6.532-1.562-6.532-6.816V283.085a2.592,2.592,0,1,1,5.184,0v9.053c0,2.095,1.029,3.586,3.266,3.586a4.025,4.025,0,0,0,3.941-4.083v-8.555a2.592,2.592,0,1,1,5.183,0Z" transform="translate(-266.875 -267.476)" fill="#fff"/>
      <path id="Path_11137" data-name="Path 11137" d="M346.43,280.493c3.941,0,7.917,1.562,7.917,3.941a2.154,2.154,0,0,1-2.165,2.272c-2.024,0-2.095-2.379-5.361-2.379-1.811,0-2.982.5-2.982,1.6,0,1.207,1.171,1.491,2.769,1.846l2.166.5c2.946.674,6.461,1.917,6.461,5.538,0,4.224-4.082,6.177-7.988,6.177-4.686,0-8.591-2.094-8.591-4.651a1.99,1.99,0,0,1,2.094-2.165c2.237,0,2.45,3.2,6.284,3.2,1.846,0,3.017-.817,3.017-1.882,0-1.313-1.136-1.527-2.982-1.988l-3.053-.746c-3.018-.746-5.361-1.988-5.361-5.467C338.655,282.055,342.844,280.493,346.43,280.493Z" transform="translate(-296.622 -267.476)" fill="#fff"/>
      <path id="Path_11138" data-name="Path 11138" d="M385.938,276.825h-.888c-1.455,0-2.059-.568-2.059-1.7s.6-1.7,2.059-1.7h.888v-3.16a2.592,2.592,0,0,1,5.183,0v3.16h1.562c1.527,0,2.343.461,2.343,1.7s-.817,1.7-2.343,1.7h-1.562v10.367c0,.781.426,1.207,1.349,1.207h.745a1.626,1.626,0,0,1,1.811,1.74c0,1.491-1.278,2.308-3.763,2.308-3.763,0-5.325-1.562-5.325-4.615Z" transform="translate(-322.675 -259.938)" fill="#fff"/>
      <path id="Path_11139" data-name="Path 11139" d="M419.408,282.907a2.344,2.344,0,1,1,4.686,0V284.9h.071c.6-2.166,1.775-4.4,4.3-4.4a2.616,2.616,0,0,1,2.84,2.52,2.369,2.369,0,0,1-2.556,2.592h-.923c-2.095,0-3.23,1.455-3.23,5.751v6.035a2.592,2.592,0,0,1-5.183,0Z" transform="translate(-344.075 -267.476)" fill="#fff"/>
      <path id="Path_11140" data-name="Path 11140" d="M468.567,294.516c0,2.166.532,2.663.532,3.479a2.17,2.17,0,0,1-2.343,1.988,2.8,2.8,0,0,1-3.053-3.018,8.926,8.926,0,0,1-7.1,3.018c-2.946,0-5.858-2.024-5.858-5.29,0-4.3,3.266-5.5,7.242-5.964l3.16-.355c1.242-.142,2.237-.426,2.237-1.917s-1.527-2.13-3.266-2.13c-3.834,0-3.941,2.84-6,2.84a2.063,2.063,0,0,1-2.2-1.988c0-2.059,2.911-4.686,8.236-4.686,4.97,0,8.414,1.6,8.414,5.325Zm-5.183-3.727a4.649,4.649,0,0,1-2.237.816l-1.882.284c-2.166.32-3.337.994-3.337,2.556,0,1.172,1.1,2.13,2.876,2.13,2.84,0,4.58-1.846,4.58-3.763Z" transform="translate(-362.489 -267.476)" fill="#fff"/>
      <path id="Path_11141" data-name="Path 11141" d="M500.739,284.5a5.413,5.413,0,0,1-.319-1.314,2.488,2.488,0,0,1,2.52-2.7,2.615,2.615,0,0,1,2.592,2.166l3.479,11.715h.071l3.479-11.715a2.615,2.615,0,0,1,2.591-2.166,2.488,2.488,0,0,1,2.521,2.7,5.4,5.4,0,0,1-.32,1.314l-4.9,13.632c-.5,1.385-.816,1.846-3.408,1.846s-2.911-.461-3.408-1.846Z" transform="translate(-391.68 -267.476)" fill="#fff"/>
      <path id="Path_11142" data-name="Path 11142" d="M551.146,291.214a4.472,4.472,0,0,0,4.793,4.722c3.905,0,3.905-2.556,6-2.556a2.141,2.141,0,0,1,2.13,2.023c0,3.125-5.006,4.58-8.13,4.58-7.242,0-9.976-4.9-9.976-9.408,0-6.035,3.656-10.082,9.8-10.082,5.964,0,9.372,4.225,9.372,8.485,0,1.775-.532,2.236-2.272,2.236Zm9.088-2.982a4.434,4.434,0,0,0-4.367-4.118c-2.591,0-4.153,1.6-4.722,4.118Z" transform="translate(-418.442 -267.476)" fill="#fff"/>
      <path id="Path_11143" data-name="Path 11143" d="M601.232,266.125a2.592,2.592,0,1,1,5.184,0v21.3a2.592,2.592,0,0,1-5.184,0Z" transform="translate(-450.92 -257.509)" fill="#fff"/>
      <g id="Group_3347" data-name="Group 3347" transform="translate(159.72 0)">
        <path id="Path_11144" data-name="Path 11144" d="M650.86,268.548a13.409,13.409,0,1,1-13.52-13.789h3.089l-2.946-5.564a.184.184,0,0,1,.164-.269h1.616a2.113,2.113,0,0,1,1.739.908L642.5,252h1.781a.758.758,0,0,1,0,1.515h-.73l.859,1.242h4.014a2.44,2.44,0,0,1,0,4.88h-4.014l-.859,1.246h.73a.758.758,0,1,1,0,1.515H642.5l-1.5,2.164a2.117,2.117,0,0,1-1.739.911h-1.616a.184.184,0,0,1-.164-.269l2.733-5.17.213-.4h-2.011a8.025,8.025,0,0,0-.963-.056c-.038,0-.077,0-.115,0a8.583,8.583,0,1,0,7.941,12.106h-5.5a2.439,2.439,0,0,1-2.44-2.433v-.007a2.44,2.44,0,0,1,2.44-2.44h9.251A1.826,1.826,0,0,1,650.86,268.548Z" transform="translate(-624.047 -248.926)" fill="#f96555"/>
      </g>
      <path id="Path_11145" data-name="Path 11145" d="M702.332,280.493c6.248,0,9.585,4.26,9.585,9.727,0,5.183-2.52,9.763-9.585,9.763s-9.585-4.58-9.585-9.763C692.747,284.753,696.084,280.493,702.332,280.493Zm0,15.656c3.088,0,4.4-2.769,4.4-5.929,0-3.373-1.384-5.893-4.4-5.893s-4.4,2.52-4.4,5.893C697.93,293.38,699.244,296.149,702.332,296.149Z" transform="translate(-504.697 -267.476)" fill="#f96555"/>
    </g>
  </g>
</svg>
