<svg xmlns="http://www.w3.org/2000/svg" xmlns:xlink="http://www.w3.org/1999/xlink" width="15" height="15" viewBox="0 0 15 15">
  <defs>
    <clipPath id="clip-path">
      <rect id="Rectangle_2351" data-name="Rectangle 2351" width="15" height="15" transform="translate(1304 17)" fill="#131c47" stroke="#707070" stroke-width="1"/>
    </clipPath>
  </defs>
  <g id="accordion-true" transform="translate(-1304 -17)" clip-path="url(#clip-path)">
    <path id="fi-rr-cross" d="M14.817.183h0a.625.625,0,0,0-.884,0L7.5,6.616,1.067.183a.625.625,0,0,0-.884,0h0a.625.625,0,0,0,0,.884L6.616,7.5.183,13.933a.625.625,0,0,0,0,.884h0a.625.625,0,0,0,.884,0L7.5,8.384l6.433,6.433a.625.625,0,0,0,.884,0h0a.625.625,0,0,0,0-.884L8.384,7.5l6.433-6.433a.625.625,0,0,0,0-.884Z" transform="translate(1304 17)" fill="#131c47"/>
  </g>
</svg>
