<svg xmlns="http://www.w3.org/2000/svg" xmlns:xlink="http://www.w3.org/1999/xlink" width="48" height="48" viewBox="0 0 48 48">
  <defs>
    <clipPath id="clip-path">
      <rect id="Rectangle_1729" data-name="Rectangle 1729" width="48" height="48" transform="translate(304 762)" fill="#f96555"/>
    </clipPath>
  </defs>
  <g id="cappadocia" transform="translate(-304 -762)" clip-path="url(#clip-path)">
    <g id="hot-air-balloon" transform="translate(304 762)">
      <path id="Path_11165" data-name="Path 11165" d="M27.132,0H20.868A14.345,14.345,0,0,0,9.782,23.448l7.562,9.209V42.736A5.27,5.27,0,0,0,22.608,48h2.784a5.27,5.27,0,0,0,5.264-5.264V32.657l7.562-9.209A14.345,14.345,0,0,0,27.132,0Zm1.751,5.825a19.532,19.532,0,0,1,1.746,8.52,20.761,20.761,0,0,1-1.364,7.677l-3.583,8.726h-.276V2.813h.16c1.151,0,2.36,1.1,3.317,3.012ZM20.157,33.56h7.687v3.424H20.157ZM22.594,2.813V30.748h-.276l-3.583-8.726a20.761,20.761,0,0,1-1.364-7.677,19.532,19.532,0,0,1,1.746-8.52c.957-1.914,2.166-3.012,3.317-3.012ZM11.956,21.663A11.532,11.532,0,0,1,17.268,3.389,12.936,12.936,0,0,0,16.6,4.567a22.366,22.366,0,0,0-2.043,9.778,23.622,23.622,0,0,0,1.575,8.745l3.006,7.323ZM25.392,45.188H22.608a2.454,2.454,0,0,1-2.451-2.451V39.8h7.687v2.94A2.454,2.454,0,0,1,25.392,45.188ZM36.044,21.663,28.86,30.412l3.006-7.322a23.623,23.623,0,0,0,1.575-8.745A22.366,22.366,0,0,0,31.4,4.567a12.936,12.936,0,0,0-.666-1.178,11.532,11.532,0,0,1,5.312,18.275Z" fill="#f96555"/>
    </g>
  </g>
</svg>
