<svg xmlns="http://www.w3.org/2000/svg" xmlns:xlink="http://www.w3.org/1999/xlink" width="16" height="16" viewBox="0 0 16 16">
  <defs>
    <clipPath id="clip-path">
      <rect id="Rectangle_1716" data-name="Rectangle 1716" width="16" height="16" fill="#fff"/>
    </clipPath>
  </defs>
  <g id="car" clip-path="url(#clip-path)">
    <g id="car-2" data-name="car" transform="translate(0 2.844)">
      <g id="Group_3382" data-name="Group 3382">
        <path id="Path_11159" data-name="Path 11159" d="M16,6.75a1.408,1.408,0,0,0-1.406-1.406h-.937a1.4,1.4,0,0,0-.354.045l-.909-2.545H3.607L2.7,5.389a1.4,1.4,0,0,0-.354-.045H1.406a1.406,1.406,0,0,0-.415,2.75,1.063,1.063,0,0,0-.023.219v4.844H3.938v-.937h8.125v.938h2.969V8.313a1.063,1.063,0,0,0-.023-.219A1.409,1.409,0,0,0,16,6.75ZM4.268,3.781h7.464L12.5,5.944a1.4,1.4,0,0,0-.213.467A19.187,19.187,0,0,0,8,5.969a19.187,19.187,0,0,0-4.291.443A1.4,1.4,0,0,0,3.5,5.944ZM1.653,7.219H1.406a.469.469,0,0,1,0-.937h.938a.469.469,0,0,1,.461.388A4.658,4.658,0,0,0,1.653,7.219Zm2.129,2.969a.938.938,0,1,1,.938-.937A.937.937,0,0,1,3.781,10.188Zm6.406.156H5.813V9.406h4.375Zm2.031-.156a.938.938,0,1,1,.938-.937A.937.937,0,0,1,12.219,10.188Zm2.375-2.969h-.246a4.658,4.658,0,0,0-1.152-.55.469.469,0,0,1,.461-.388h.938a.469.469,0,0,1,0,.938Z" transform="translate(0 -2.844)" fill="#fff"/>
      </g>
    </g>
  </g>
</svg>
