<svg xmlns="http://www.w3.org/2000/svg" xmlns:xlink="http://www.w3.org/1999/xlink" width="16" height="16" viewBox="0 0 16 16">
  <defs>
    <clipPath id="clip-path">
      <rect id="Rectangle_1723" data-name="Rectangle 1723" width="16" height="16" transform="translate(162 92)" fill="#131c47"/>
    </clipPath>
  </defs>
  <g id="class-blue" transform="translate(-162 -92)" clip-path="url(#clip-path)">
    <g id="seat" transform="translate(162 92)">
      <g id="Group_3397" data-name="Group 3397">
        <path id="Path_11162" data-name="Path 11162" d="M7.289,4.235v.706a2.588,2.588,0,0,0,5.176,0V4.235Z" fill="#131c47"/>
        <path id="Path_11163" data-name="Path 11163" d="M9.407,3.294V2.51h.941v.784h2.118V2.588a2.588,2.588,0,1,0-5.176,0v.706Z" fill="#131c47"/>
      </g>
      <path id="Path_11164" data-name="Path 11164" d="M11.384,10.353H7.193l-.216-.941h4.076V8.471H6.762L5.817,4.346a1.95,1.95,0,0,0-1.91-1.522H3.839A1.245,1.245,0,0,0,2.617,4.309l1.932,9.808h1.4L6.263,16h5.732v-.941H7.06L6.9,14.118h5.289A1.216,1.216,0,0,0,13.407,12.9v-.527a2.025,2.025,0,0,0-2.023-2.023Z" fill="#131c47"/>
    </g>
  </g>
</svg>
