<svg xmlns="http://www.w3.org/2000/svg" xmlns:xlink="http://www.w3.org/1999/xlink" width="16" height="16" viewBox="0 0 16 16">
  <defs>
    <clipPath id="clip-path">
      <rect id="Rectangle_1712" data-name="Rectangle 1712" width="16" height="16" transform="translate(438 32)" fill="#f96555"/>
    </clipPath>
  </defs>
  <g id="fly-line-orange" transform="translate(-438 -32)" clip-path="url(#clip-path)">
    <g id="plane_1_" data-name="plane (1)" transform="translate(438 32)">
      <g id="Group_3354" data-name="Group 3354">
        <path id="Path_11146" data-name="Path 11146" d="M16,1.9A1.884,1.884,0,0,0,14.116,0H14.1a1.87,1.87,0,0,0-1.34.58L9.955,3.5,2.627,1.073.463,3.237,6.587,7.008,4.067,9.634,2.09,9.309,0,11.4l3.408,1.194L4.6,16l2.09-2.09-.325-1.978,2.626-2.52,3.771,6.124,2.164-2.164L12.5,6.045l2.918-2.8A1.87,1.87,0,0,0,16,1.9Zm-1.229.663-3.345,3.21,2.429,7.341-.915.915L9.182,7.93,5.361,11.6l.327,1.99-.694.694-.849-2.425-2.425-.849.694-.694,1.99.327L8.07,6.818l-6.1-3.758.915-.915,7.341,2.429,3.21-3.345a.939.939,0,0,1,.673-.291h.01a.946.946,0,0,1,.655,1.629Z" fill="#f96555"/>
      </g>
    </g>
  </g>
</svg>
