<svg id="swap" xmlns="http://www.w3.org/2000/svg" xmlns:xlink="http://www.w3.org/1999/xlink" width="32" height="32" viewBox="0 0 32 32">
  <defs>
    <clipPath id="clip-path">
      <rect id="Rectangle_1725" data-name="Rectangle 1725" width="16" height="16" fill="#f96555"/>
    </clipPath>
  </defs>
  <g id="Ellipse_1300" data-name="Ellipse 1300" fill="#fff" stroke="#f96555" stroke-width="1">
    <circle cx="16" cy="16" r="16" stroke="none"/>
    <circle cx="16" cy="16" r="15.5" fill="none"/>
  </g>
  <g id="Mask_Group_14" data-name="Mask Group 14" transform="translate(8 8)" clip-path="url(#clip-path)">
    <g id="Group_3401" data-name="Group 3401" transform="translate(1.51 0)">
      <path id="fi-rr-arrow-left" d="M.474,10.343l2.1,2.1a.541.541,0,0,0,.765,0h0a.541.541,0,0,0,0-.765L1.414,9.754H12.438a.541.541,0,0,0,.541-.541h0a.541.541,0,0,0-.541-.541H1.381L3.336,6.715a.541.541,0,0,0,0-.765h0a.541.541,0,0,0-.765,0l-2.1,2.1a1.626,1.626,0,0,0,0,2.294Z" transform="translate(0 3.401)" fill="#f96555"/>
      <path id="fi-rr-arrow-right" d="M12.506,8.111l-2.094-2.1a.541.541,0,0,0-.765,0h0a.541.541,0,0,0,0,.765L11.566,8.7H.541A.541.541,0,0,0,0,9.243H0a.541.541,0,0,0,.541.541H11.6L9.644,11.739a.541.541,0,0,0,0,.766h0a.541.541,0,0,0,.765,0l2.1-2.1A1.627,1.627,0,0,0,12.506,8.111Z" transform="translate(0 -5.855)" fill="#f96555"/>
    </g>
  </g>
</svg>
