<svg xmlns="http://www.w3.org/2000/svg" xmlns:xlink="http://www.w3.org/1999/xlink" width="48" height="48" viewBox="0 0 48 48">
  <defs>
    <clipPath id="clip-path">
      <rect id="Rectangle_1729" data-name="Rectangle 1729" width="48" height="48" transform="translate(304 762)" fill="#f96555"/>
    </clipPath>
  </defs>
  <g id="tour-guide-icon" transform="translate(-304 -762)" clip-path="url(#clip-path)">
    <g id="guide" transform="translate(304 762)">
      <path id="Path_11166" data-name="Path 11166" d="M40.817,29.728l-6.879-1.1V26.969a9.392,9.392,0,0,0,5.625-8.594V14.531H44.25a.938.938,0,0,0,.938-.937V12.519a4.087,4.087,0,0,0-4.082-4.082h-1.59a9.375,9.375,0,0,0-18.657,0h-1.59a4.087,4.087,0,0,0-4.082,4.082v1.074a.938.938,0,0,0,.937.938h4.688v3.844a9.392,9.392,0,0,0,5.625,8.594v1.658l-6.879,1.1a8.534,8.534,0,0,0-7.183,8.424v8.911a.938.938,0,0,0,.938.937h33.75A.938.938,0,0,0,48,47.063V38.152a8.534,8.534,0,0,0-7.183-8.424ZM30.187,1.875a7.51,7.51,0,0,1,7.439,6.562H22.748A7.51,7.51,0,0,1,30.187,1.875Zm-7.5,16.5V14.531h3.375a.938.938,0,0,0,0-1.875h-9v-.137a2.209,2.209,0,0,1,2.207-2.207H41.106a2.209,2.209,0,0,1,2.207,2.207v.137H34.5a.938.938,0,0,0,0,1.875h3.187v3.844a7.5,7.5,0,1,1-15,0Zm4.836,11.977a.937.937,0,0,0,.789-.926V27.561a9.4,9.4,0,0,0,3.75,0v1.865a.937.937,0,0,0,.789.926l3.111.5-5.776,7.7-5.776-7.7Zm4.633,15.773H28.312V41.812h3.844ZM14.25,38.152a6.628,6.628,0,0,1,5.6-6.572l2.465-.394,6.564,8.753H27.375a.938.938,0,0,0-.937.938v5.25H19.875v-5.25a.937.937,0,0,0-1.875,0v5.25H14.25Zm31.875,7.973h-3.75v-5.25a.938.938,0,0,0-1.875,0v5.25H34.031v-5.25a.938.938,0,0,0-.937-.937h-1.6l6.564-8.753,2.465.394a6.628,6.628,0,0,1,5.6,6.572Z" fill="#f96555"/>
      <path id="Path_11167" data-name="Path 11167" d="M33.434,20.25a.937.937,0,0,0-1.623-.938,1.873,1.873,0,0,1-3.246,0,.937.937,0,1,0-1.623.938,3.748,3.748,0,0,0,6.493,0Z" fill="#f96555"/>
      <path id="Path_11168" data-name="Path 11168" d="M.937,46.125A.938.938,0,0,0,.937,48H6.562a.938.938,0,0,0,0-1.875H4.687v-15.3l13.473-5.389a.938.938,0,0,0,0-1.741L4.687,18.3v-4.99a.937.937,0,1,0-1.875,0V46.125ZM15.288,24.562,4.688,28.8v-8.48Z" fill="#f96555"/>
      <circle id="Ellipse_1301" data-name="Ellipse 1301" cx="0.937" cy="0.937" r="0.937" transform="translate(29.344 12.656)" fill="#f96555"/>
    </g>
  </g>
</svg>
