<svg xmlns="http://www.w3.org/2000/svg" xmlns:xlink="http://www.w3.org/1999/xlink" width="48" height="48" viewBox="0 0 48 48">
  <defs>
    <clipPath id="clip-path">
      <rect id="Rectangle_1729" data-name="Rectangle 1729" width="48" height="48" transform="translate(304 762)" fill="#131c47"/>
    </clipPath>
  </defs>
  <g id="best-price" transform="translate(-304 -762)" clip-path="url(#clip-path)">
    <g id="best-price-2" data-name="best-price" transform="translate(304 762)">
      <path id="Path_11190" data-name="Path 11190" d="M.656,44.312h5.68a.656.656,0,0,0,.656-.656V41.708l.485-.7V27.049l-.485-.55V24.424a.656.656,0,0,0-.656-.656H.656A.656.656,0,0,0,0,24.424V43.655a.656.656,0,0,0,.656.656Z" fill="#131c47"/>
      <path id="Path_11191" data-name="Path 11191" d="M46.176,7.514l-8.6-3.585a3.148,3.148,0,0,0-2.414,0l-8.6,3.585a2.908,2.908,0,0,0-1.824,2.668V25.608l0,15.664h0a2.977,2.977,0,0,0,3.028,2.8H44.969A2.971,2.971,0,0,0,48,41.16V10.182a2.908,2.908,0,0,0-1.824-2.668ZM36.218,12.54A2.036,2.036,0,1,1,38.254,10.5,2.036,2.036,0,0,1,36.218,12.54Z" fill="#f96555"/>
      <path id="Path_11192" data-name="Path 11192" d="M31.519,41.273h0V39.421a5.295,5.295,0,0,0,.624-4.538,5.3,5.3,0,0,0,.8-4.77,5.293,5.293,0,0,0-1.426-7.663V10.182A2.908,2.908,0,0,1,33.34,7.514l6.418-2.674-2.187-.91a3.148,3.148,0,0,0-2.414,0l-8.6,3.585a2.908,2.908,0,0,0-1.824,2.668V25.608h0l0,15.664h0a2.977,2.977,0,0,0,3.028,2.8h6.787a2.977,2.977,0,0,1-3.028-2.8Z" fill="#ff7364"/>
      <path id="Path_11193" data-name="Path 11193" d="M37.882,30.937,34.61,29.874a.688.688,0,0,1-.476-.656V27.783a1.006,1.006,0,0,1,1-1H36.9a1.006,1.006,0,0,1,1,1,.727.727,0,1,0,1.454,0A2.462,2.462,0,0,0,36.9,25.324h-.155v-1.6a.727.727,0,1,0-1.454,0v1.6h-.156a2.462,2.462,0,0,0-2.459,2.459v1.436a2.138,2.138,0,0,0,1.481,2.039l3.272,1.063a.687.687,0,0,1,.476.655v1a1.24,1.24,0,0,1-1.238,1.238h-1.3a1.24,1.24,0,0,1-1.238-1.238.727.727,0,1,0-1.454,0,2.7,2.7,0,0,0,2.615,2.691v1.6a.727.727,0,0,0,1.454,0v-1.6a2.7,2.7,0,0,0,2.615-2.691v-1A2.139,2.139,0,0,0,37.882,30.937Z" fill="#fff"/>
      <path id="Path_11194" data-name="Path 11194" d="M24.931,38.9h1.2a2.392,2.392,0,1,1,0,4.783H13.3a2.934,2.934,0,0,1-1.784-.612,7.58,7.58,0,0,0-4.522-1.36V26.5c4.09-4.673,9.273-5.112,8.91-12.1a2.113,2.113,0,0,1,4.129-.737,15.972,15.972,0,0,1-.077,10.879H28.7a2.392,2.392,0,0,1,0,4.783h-.81a2.392,2.392,0,0,1,0,4.783h-.8a2.392,2.392,0,1,1,0,4.783H24.931Z" fill="#fff3de"/>
      <path id="Path_11195" data-name="Path 11195" d="M24.931,38.9h1.2a2.392,2.392,0,1,1,0,4.783H13.3a2.934,2.934,0,0,1-1.784-.612,7.58,7.58,0,0,0-4.522-1.36V26.5c4.09-4.673,9.273-5.112,8.91-12.1a2.113,2.113,0,0,1,4.129-.737,15.972,15.972,0,0,1-.077,10.879H28.7a2.392,2.392,0,0,1,0,4.783h-.81a2.392,2.392,0,0,1,0,4.783h-.8a2.392,2.392,0,1,1,0,4.783H24.931Z" fill="#ffcebf"/>
      <path id="Path_11196" data-name="Path 11196" d="M20.914,20.3c-1.592,1.855-4.01,3.07-6.252,5.267a2.924,2.924,0,0,0-.882,2.087V39.132a2.933,2.933,0,0,0,2.229,2.862,5.985,5.985,0,0,1,2.986,1.686H13.3a2.934,2.934,0,0,1-1.783-.612,7.583,7.583,0,0,0-4.522-1.36V26.5c4.093-4.676,9.28-5.113,8.909-12.111a2.115,2.115,0,0,1,3.367-1.8,2.085,2.085,0,0,1,.763,1.074,18.271,18.271,0,0,1,.882,6.634Z" fill="#fbc6b5"/>
    </g>
  </g>
</svg>
