<svg xmlns="http://www.w3.org/2000/svg" xmlns:xlink="http://www.w3.org/1999/xlink" width="48" height="48" viewBox="0 0 48 48">
  <defs>
    <clipPath id="clip-path">
      <rect id="Rectangle_1729" data-name="Rectangle 1729" width="48" height="48" transform="translate(304 762)" fill="#131c47"/>
    </clipPath>
  </defs>
  <g id="support" transform="translate(-304 -762)" clip-path="url(#clip-path)">
    <g id="customer-service" transform="translate(304 762)">
      <g id="Group_3419" data-name="Group 3419">
        <g id="Group_3418" data-name="Group 3418">
          <path id="Path_11174" data-name="Path 11174" d="M.357,7.561a7.561,7.561,0,1,1,12.531,5.7.328.328,0,0,0,.048.53l1.425.843a.263.263,0,0,1-.134.489l-6.452,0A7.561,7.561,0,0,1,.357,7.561Z" fill="#f96555"/>
        </g>
      </g>
      <g id="Group_3424" data-name="Group 3424">
        <g id="Group_3421" data-name="Group 3421">
          <path id="Path_11176" data-name="Path 11176" d="M37.2,27.446H20.046a5.059,5.059,0,0,1-3.892-8.289l.152-.183a8.091,8.091,0,0,0,1.865-5.168V10.5a10.5,10.5,0,0,1,21,0v3.419a8.091,8.091,0,0,0,1.9,5.212A5.059,5.059,0,0,1,37.2,27.446Z" fill="#131c47"/>
          <path id="Path_11177" data-name="Path 11177" d="M46.216,35.947v11.34H11.03V36.032A6.332,6.332,0,0,1,14.9,30.2l5.68-2.469,1.913-.832a3.974,3.974,0,0,0,2.39-3.645v-.734h7.471v.7a3.975,3.975,0,0,0,2.409,3.653l7.683,3.293a6.331,6.331,0,0,1,3.766,5.788Z" fill="#fff"/>
          <path id="Path_11178" data-name="Path 11178" d="M20.584,30.43a27.209,27.209,0,0,0,16.077-.151l.926-2.206-2.821-1.209a3.974,3.974,0,0,1-2.409-3.653v-.7H24.887v.734a3.974,3.974,0,0,1-2.39,3.645l-2.285.993Z" fill="#ffcebf"/>
          <g id="Group_3420" data-name="Group 3420">
            <path id="Path_11179" data-name="Path 11179" d="M42.45,30.158l-5.787-2.481h0V47.286h9.555V35.947a6.332,6.332,0,0,0-3.766-5.789Z" fill="#f96555"/>
            <path id="Path_11180" data-name="Path 11180" d="M20.585,27.727v19.56H11.03V36.032A6.332,6.332,0,0,1,14.9,30.2Z" fill="#f96555"/>
          </g>
        </g>
        <g id="Group_3423" data-name="Group 3423">
          <path id="Path_11181" data-name="Path 11181" d="M31.212,26.617a6.284,6.284,0,0,0,2.425-.484,3.974,3.974,0,0,1-1.279-2.92v-.7H24.887v.734a3.967,3.967,0,0,1-.348,1.625,6.281,6.281,0,0,0,4.348,1.742h2.325Z" fill="#ffb09e"/>
          <path id="Path_11182" data-name="Path 11182" d="M36.09,11.277v6.18a6.3,6.3,0,0,1-6.3,6.3H27.46a6.3,6.3,0,0,1-6.3-6.3v-6.18a4.1,4.1,0,0,1,4.1-4.1h6.731a4.1,4.1,0,0,1,4.1,4.1Z" fill="#ffcebf"/>
          <path id="Path_11183" data-name="Path 11183" d="M36.09,14.493c0,.009-.006.017-.009.026a6.652,6.652,0,0,1-2.271,3.388,6.353,6.353,0,0,1-2.282,1.115.714.714,0,1,0,.362,1.38,7.775,7.775,0,0,0,2.791-1.365,7.643,7.643,0,0,0,1.4-1.413c0-.055,0-.11,0-.166V14.493Z" fill="#7a6d79"/>
          <path id="Path_11184" data-name="Path 11184" d="M30.745,20.994H29.073a1.378,1.378,0,0,1,0-2.756h1.672a1.378,1.378,0,0,1,0,2.756Z" fill="#685e68"/>
          <g id="Group_3422" data-name="Group 3422">
            <path id="Path_11185" data-name="Path 11185" d="M30.113,5.54c.16-2.019,2.093-3.36,3.944-4.054a10.492,10.492,0,0,1,5.11,9.011v.722c-.169.036-.338.067-.5.091a8.5,8.5,0,0,1-2.48,0c-3.822-.509-6.263-3.331-6.069-5.77Z" fill="#131c47"/>
            <path id="Path_11186" data-name="Path 11186" d="M28.669,0a10.451,10.451,0,0,1,6.315,2.112A18.725,18.725,0,0,1,28.32,8.886a18.577,18.577,0,0,1-7.072,2.425H18.171V10.5A10.5,10.5,0,0,1,28.669,0Z" fill="#131c47"/>
          </g>
        </g>
      </g>
      <path id="Path_11187" data-name="Path 11187" d="M40.4,47.286H17.561L16.3,35.4a1.427,1.427,0,0,1,1.419-1.578H40.244A1.427,1.427,0,0,1,41.664,35.4Z" fill="#f2f2f2"/>
      <path id="Path_11188" data-name="Path 11188" d="M40.244,33.824H37.39A1.427,1.427,0,0,1,38.809,35.4l-1.26,11.885H40.4L41.663,35.4A1.427,1.427,0,0,0,40.244,33.824Z" fill="#e5e1e5"/>
      <g id="Group_3425" data-name="Group 3425">
        <path id="Path_11189" data-name="Path 11189" d="M47.3,48H.7a.7.7,0,0,1,0-1.406H47.3A.7.7,0,0,1,47.3,48Z" fill="#f2f2f2"/>
      </g>
      <circle id="Ellipse_1302" data-name="Ellipse 1302" cx="1.998" cy="1.998" r="1.998" transform="translate(26.984 38.557)" fill="#a5a9bf"/>
      <g id="Group_3426" data-name="Group 3426">
        <circle id="Ellipse_1303" data-name="Ellipse 1303" cx="0.714" cy="0.714" r="0.714" transform="translate(4.35 6.848)" fill="#fff"/>
        <circle id="Ellipse_1304" data-name="Ellipse 1304" cx="0.714" cy="0.714" r="0.714" transform="translate(7.205 6.848)" fill="#fff"/>
        <circle id="Ellipse_1305" data-name="Ellipse 1305" cx="0.714" cy="0.714" r="0.714" transform="translate(10.059 6.848)" fill="#fff"/>
      </g>
    </g>
  </g>
</svg>
